<svg width="145" height="45" viewBox="0 0 145 45" fill="none" xmlns="http://www.w3.org/2000/svg">
<g clip-path="url(#clip0_50766_28388)">
<g clip-path="url(#clip1_50766_28388)">
<path d="M21.5601 0.0524018C23.8877 0.0532773 28.4957 -0.168958 30.6385 0.295344C32.0377 0.598589 33.4359 1.3592 34.4817 2.34253C36.4154 4.16049 37.2412 6.54914 37.3273 9.17151C37.3818 10.8222 37.3356 12.4886 37.3315 14.1406L37.3199 22.7448L37.3191 28.0904C37.3193 29.5888 37.4049 31.1678 37.1077 32.6416C36.7821 34.2631 36.0195 35.7621 34.9045 36.9714C33.1988 38.8127 31.1072 39.6121 28.6494 39.6845C24.2476 39.7995 19.8185 39.6846 15.4136 39.6852L10.7587 39.6861C9.46842 39.6858 8.08141 39.7553 6.81108 39.4979C5.46317 39.2246 4.1368 38.5464 3.10474 37.6306C1.20317 35.9429 0.200114 33.5654 0.0459874 31.038C-0.0454672 29.5383 0.0163349 28.0032 0.0186252 26.5L0.0252585 18.565L0.022771 12.382C0.0220198 10.652 -0.0788473 8.8616 0.254106 7.15661C0.556399 5.58651 1.26925 4.12753 2.31787 2.93123C4.0588 0.951792 6.18934 0.218838 8.73221 0.0698141C12.9941 -0.0741243 17.2948 0.0507851 21.5601 0.0524018ZM7.91966 19.5111C6.12205 21.3144 4.16632 22.9623 2.39167 24.7853L2.38255 28.5074C2.38048 31.0592 2.37916 33.4289 4.27552 35.3695C5.83478 36.965 7.647 37.1764 9.75625 37.1796L13.6043 37.177C14.9735 37.1856 17.3353 37.5005 18.377 36.4864C18.803 36.0673 19.0435 35.4916 19.0444 34.8903C19.0416 34.4459 18.9207 34.0689 18.6929 33.6946C17.9273 32.4364 16.9418 31.2685 16.0504 30.0985L11.4775 24.1005L9.01749 20.8775C8.70674 20.4709 8.37436 19.9139 8.00175 19.5732C7.98044 19.5538 7.94089 19.5263 7.91966 19.5111ZM29.2497 2.71648C28.7367 2.64684 28.2172 2.63464 27.7017 2.68083C26.7676 2.79099 25.9086 3.05175 25.1031 3.5531C23.5014 4.5502 22.0591 6.0775 20.6621 7.3581C17.6003 10.19 14.5673 13.0533 11.5638 15.9482C13.0784 17.8571 14.4936 19.8627 15.941 21.8253L23.4854 32.0604C24.8874 33.9887 26.1586 36.2262 28.7099 36.6215C30.0878 36.8307 31.4906 36.4774 32.6112 35.639C33.7943 34.7748 34.5841 33.4647 34.8026 32.004C35.0589 30.2763 34.9416 28.4359 34.9419 26.6874L34.9477 18.2765L34.956 12.1805C34.961 11.0355 35.06 9.82851 34.9096 8.69468C34.7549 7.53025 34.3185 6.33828 33.6227 5.39383C32.5807 3.97977 30.9828 2.96256 29.2497 2.71648ZM17.6639 2.67751C16.5766 2.45433 15.3154 2.56741 14.2072 2.56723C12.5066 2.56698 10.8012 2.54352 9.10121 2.57635C8.84326 2.58134 8.57666 2.58015 8.32014 2.60537C6.58825 2.7472 5.13677 3.33537 3.98614 4.69899C3.30333 5.51135 2.82823 6.4816 2.60394 7.52393C2.22074 9.28885 2.39041 11.3425 2.39084 13.1456L2.38753 21.6146C4.23068 19.7162 6.18642 17.9187 8.07803 16.0692L15.693 8.63745C16.6502 7.6956 17.8369 6.76701 18.6448 5.69896C18.907 5.35238 19.0589 4.9872 19.0644 4.54643C19.0707 4.0248 18.8699 3.48612 18.5022 3.11696C18.2636 2.87772 17.9907 2.74462 17.6639 2.67751Z" fill="#FEFEFE"/>
<path d="M21.5621 0.0523908C23.8896 0.053273 28.4976 -0.168946 30.6405 0.295334C32.0397 0.598572 33.4379 1.35921 34.4837 2.34252C36.4174 4.16047 37.2432 6.54913 37.3293 9.17142C37.3838 10.8222 37.3375 12.4885 37.3335 14.1406L37.3218 22.7448L37.3211 28.0904C37.3213 29.5887 37.4078 31.1679 37.1104 32.6416C36.7849 34.2631 36.0215 35.7621 34.9065 36.9714C33.2007 38.8127 31.1093 39.6121 28.6513 39.6844C24.2495 39.7995 19.8205 39.6846 15.4155 39.6852L10.7606 39.6861C9.4704 39.6858 8.08337 39.7553 6.81303 39.4979C5.46516 39.2245 4.13872 38.5464 3.1067 37.6306C1.20517 35.9429 0.202064 33.5654 0.0479396 31.0379C-0.0435131 29.5383 0.0182876 28.0032 0.0205774 26.5L0.0272106 18.565L0.0247232 12.382C0.023972 10.652 -0.0768952 8.8616 0.256058 7.1566C0.558346 5.58652 1.27122 4.12751 2.31983 2.93122C4.06075 0.951784 6.19129 0.218827 8.73418 0.0698031C12.9961 -0.0741411 17.2967 0.0507741 21.5621 0.0523908ZM7.92162 19.5111C6.12399 21.3145 4.16831 22.9622 2.39362 24.7853L2.3845 28.5074C2.38244 31.0592 2.38106 33.4289 4.27746 35.3695C5.83677 36.9649 7.64889 37.1764 9.75823 37.1795L13.6063 37.177C14.9754 37.1856 17.3372 37.5005 18.379 36.4863C18.8048 36.0673 19.0455 35.4916 19.0464 34.8903C19.0436 34.4459 18.9226 34.0689 18.6949 33.6946C17.9293 32.4365 16.9437 31.2685 16.0523 30.0985L11.4795 24.1004L9.01938 20.8775C8.70871 20.4709 8.3763 19.9139 8.0037 19.5732C7.98238 19.5538 7.94283 19.5263 7.92162 19.5111ZM29.2509 2.71647C28.738 2.64687 28.2191 2.63464 27.7036 2.68082C26.7693 2.79098 25.9099 3.05155 25.1042 3.55309C23.5025 4.5502 22.0602 6.07749 20.6633 7.35809C17.6015 10.19 14.5685 13.0533 11.5649 15.9482C13.0796 17.8571 14.4947 19.8627 15.9421 21.8253L23.4874 32.0603C24.8894 33.9886 26.1598 36.2261 28.711 36.6215C30.089 36.8307 31.4925 36.4774 32.613 35.639C33.7961 34.7748 34.5861 33.4646 34.8045 32.0039C35.0609 30.2763 34.9427 28.4359 34.943 26.6874L34.9497 18.2765L34.9571 12.1805C34.9621 11.0355 35.062 9.82851 34.9115 8.69468C34.7569 7.53033 34.3204 6.33824 33.6246 5.39382C32.5827 3.97972 30.984 2.96253 29.2509 2.71647ZM17.6667 2.67668C16.5793 2.45337 15.3175 2.56659 14.2092 2.56639C12.5085 2.56614 10.8032 2.54267 9.10318 2.57551C8.84524 2.58049 8.57863 2.57931 8.3221 2.60453C6.59024 2.74639 5.1387 3.33451 3.98809 4.69815C3.30531 5.51047 2.83103 6.48081 2.60672 7.52309C2.22355 9.28783 2.39233 11.341 2.3928 13.144L2.38948 21.6138C4.23263 19.7153 6.18838 17.918 8.07998 16.0684L15.695 8.63669C16.6521 7.69477 17.8389 6.76615 18.6467 5.69812C18.909 5.35154 19.0609 4.98635 19.0663 4.54559C19.0725 4.02392 18.8719 3.48528 18.5041 3.11612C18.2657 2.87694 17.9934 2.74379 17.6667 2.67668Z" fill="#FEFEFE"/>
<path d="M132.381 44.0337V41.4729C132.646 41.5024 132.896 41.5318 133.131 41.5612C133.366 41.5907 133.603 41.6054 133.838 41.6054C134.103 41.6054 134.36 41.5833 134.61 41.5391C134.875 41.5097 135.126 41.4361 135.361 41.3184C135.596 41.2007 135.81 41.0388 136.001 40.8327C136.192 40.6414 136.354 40.3912 136.487 40.0821L136.928 39.0667L136.575 40.8769L132.094 27.8965H135.339L138.142 37.0137L140.924 27.8965H144.169L139.975 40.1484C139.724 40.9137 139.408 41.5539 139.025 42.0689C138.658 42.5841 138.231 42.9961 137.745 43.3052C137.259 43.6142 136.722 43.835 136.134 43.9674C135.56 44.0999 134.941 44.1661 134.279 44.1661C134.029 44.1661 133.727 44.1514 133.374 44.122C133.021 44.1073 132.69 44.0778 132.381 44.0337Z" fill="white"/>
<path d="M113.857 39.9054V27.8964H116.705L116.771 30.0377C116.919 29.6255 117.11 29.265 117.345 28.956C117.596 28.6469 117.875 28.3967 118.184 28.2054C118.493 28.014 118.832 27.8669 119.2 27.7639C119.583 27.6608 119.988 27.6094 120.414 27.6094C120.871 27.6094 121.297 27.6682 121.694 27.786C122.092 27.9037 122.445 28.073 122.754 28.2937C123.078 28.4997 123.358 28.7646 123.593 29.0884C123.829 29.4122 124.02 29.7801 124.167 30.1922C124.314 29.7507 124.505 29.368 124.741 29.0443C124.977 28.7204 125.248 28.4555 125.557 28.2496C125.882 28.0288 126.242 27.8669 126.639 27.7639C127.036 27.6608 127.456 27.6094 127.897 27.6094C128.516 27.6094 129.075 27.7124 129.575 27.9184C130.091 28.1244 130.524 28.4262 130.878 28.8235C131.246 29.2061 131.525 29.6845 131.716 30.2584C131.908 30.8176 132.003 31.4505 132.003 32.1569V39.9054H128.913V33.1724C128.913 32.672 128.869 32.2378 128.78 31.8699C128.707 31.502 128.589 31.2003 128.427 30.9648C128.266 30.7146 128.052 30.5306 127.787 30.413C127.537 30.2952 127.235 30.2364 126.882 30.2364C126.514 30.2364 126.183 30.3026 125.889 30.435C125.595 30.5675 125.337 30.7588 125.116 31.009C124.91 31.2444 124.748 31.5461 124.63 31.9141C124.528 32.282 124.476 32.7014 124.476 33.1724V39.9054H121.385V33.1724C121.385 32.672 121.341 32.2378 121.253 31.8699C121.18 31.502 121.062 31.2003 120.899 30.9648C120.738 30.7146 120.524 30.5306 120.259 30.413C120.01 30.2952 119.707 30.2364 119.354 30.2364C118.987 30.2364 118.655 30.3026 118.361 30.435C118.067 30.5675 117.809 30.7588 117.588 31.009C117.383 31.2444 117.221 31.5461 117.103 31.9141C117 32.282 116.948 32.7014 116.948 33.1724V39.9054H113.857Z" fill="white"/>
<path d="M100.248 33.9009C100.248 32.9589 100.396 32.1054 100.69 31.3401C100.984 30.5601 101.396 29.8978 101.926 29.3533C102.471 28.7941 103.126 28.3672 103.891 28.073C104.656 27.7639 105.51 27.6094 106.451 27.6094C107.378 27.6094 108.211 27.7565 108.946 28.0509C109.696 28.3452 110.33 28.7646 110.844 29.3092C111.374 29.839 111.779 30.4865 112.058 31.2518C112.339 32.0024 112.478 32.8413 112.478 33.7684V34.6956H103.427C103.486 35.1518 103.597 35.5712 103.758 35.9539C103.92 36.3365 104.127 36.6603 104.376 36.9252C104.641 37.1901 104.95 37.3961 105.303 37.5433C105.657 37.6758 106.047 37.742 106.473 37.742C106.798 37.742 107.091 37.7052 107.356 37.6316C107.637 37.558 107.886 37.4476 108.107 37.3005C108.328 37.1386 108.52 36.9473 108.681 36.7265C108.857 36.5058 109.005 36.2556 109.122 35.976H112.367C112.014 37.271 111.316 38.3012 110.27 39.0665C109.24 39.8171 107.968 40.1924 106.451 40.1924C105.51 40.1924 104.656 40.0452 103.891 39.7509C103.126 39.4418 102.471 39.0076 101.926 38.4484C101.396 37.8892 100.984 37.2269 100.69 36.4616C100.396 35.6963 100.248 34.8427 100.248 33.9009ZM103.449 32.9296H109.365C109.321 32.4881 109.218 32.0907 109.056 31.7375C108.909 31.3843 108.711 31.0825 108.46 30.8324C108.225 30.5822 107.938 30.3909 107.599 30.2584C107.261 30.126 106.878 30.0598 106.451 30.0598C106.025 30.0598 105.642 30.126 105.303 30.2584C104.98 30.3909 104.685 30.5822 104.42 30.8324C104.171 31.0825 103.964 31.3843 103.802 31.7375C103.641 32.0907 103.523 32.4881 103.449 32.9296Z" fill="white"/>
<path d="M98.8524 39.9052H96.0047L95.9385 37.9184C95.5853 38.6689 95.0478 39.2356 94.327 39.6182C93.6061 40.0008 92.8038 40.1922 91.9208 40.1922C91.1405 40.1922 90.4273 40.045 89.7794 39.7506C89.1469 39.4563 88.6018 39.0369 88.1458 38.4923C87.6899 37.9331 87.3367 37.2635 87.0862 36.4835C86.8357 35.7035 86.7109 34.8426 86.7109 33.9007C86.7109 32.9588 86.8357 32.1052 87.0862 31.3399C87.3367 30.5599 87.6899 29.8977 88.1458 29.3531C88.6018 28.7939 89.1469 28.3671 89.7794 28.0727C90.4273 27.7636 91.1405 27.6091 91.9208 27.6091C92.8038 27.6091 93.5841 27.8005 94.2608 28.1831C94.9527 28.5658 95.4893 29.1103 95.8723 29.8167V23.6797H98.8524V39.9052ZM95.8281 33.8786C95.8281 33.2899 95.7542 32.7675 95.6074 32.3112C95.4749 31.855 95.2762 31.465 95.0113 31.1413C94.7608 30.8175 94.445 30.5746 94.0621 30.4127C93.6944 30.2361 93.2674 30.1478 92.7817 30.1478C92.3105 30.1478 91.891 30.2288 91.5234 30.3906C91.1702 30.5525 90.8611 30.7954 90.5962 31.1191C90.3458 31.443 90.1547 31.8403 90.0223 32.3112C89.9042 32.7675 89.8457 33.2899 89.8457 33.8786C89.8457 34.482 89.9042 35.0192 90.0223 35.4901C90.1547 35.961 90.3458 36.3584 90.5962 36.6821C90.8611 36.9912 91.1778 37.234 91.5455 37.4106C91.9131 37.5725 92.3258 37.6535 92.7817 37.6535C93.2674 37.6535 93.6944 37.5725 94.0621 37.4106C94.445 37.234 94.7608 36.9839 95.0113 36.6601C95.2762 36.3363 95.4749 35.939 95.6074 35.468C95.7542 34.9971 95.8281 34.4673 95.8281 33.8786Z" fill="white"/>
<path d="M73.9668 36.8369C73.9668 35.8361 74.3126 35.0488 75.0043 34.4748C75.696 33.9009 76.7335 33.4888 78.117 33.2386L82.3555 32.466V32.3777C82.3555 31.5682 82.1347 30.9648 81.6932 30.5675C81.2517 30.1701 80.6336 29.9714 79.8389 29.9714C79.0294 29.9714 78.4113 30.1701 77.9845 30.5675C77.5724 30.9648 77.3223 31.524 77.234 32.2452H74.1213C74.1949 31.4947 74.3788 30.8324 74.6732 30.2584C74.9823 29.6697 75.3796 29.184 75.8653 28.8014C76.3656 28.4041 76.9543 28.1097 77.6313 27.9184C78.3083 27.7124 79.0515 27.6094 79.8609 27.6094C81.627 27.6094 82.9883 28.0435 83.9449 28.9118C84.9017 29.7654 85.3797 31.0016 85.3797 32.6205V39.9054H82.5321L82.4659 38.1394C82.2893 38.4337 82.0537 38.7059 81.7594 38.9562C81.4651 39.2063 81.1266 39.4271 80.744 39.6184C80.3613 39.795 79.9345 39.9348 79.4636 40.0379C79.0073 40.1409 78.5216 40.1924 78.0066 40.1924C77.462 40.1924 76.9396 40.1262 76.4393 39.9937C75.9536 39.8613 75.5268 39.6626 75.1589 39.3977C74.7909 39.118 74.4966 38.7648 74.2759 38.3381C74.0698 37.9112 73.9668 37.4109 73.9668 36.8369ZM77.1236 36.4175C77.1236 36.9031 77.3002 37.271 77.6534 37.5213C78.0066 37.7567 78.4849 37.8745 79.0883 37.8745C79.5887 37.8745 80.0375 37.8009 80.4349 37.6537C80.847 37.5065 81.1928 37.3005 81.4725 37.0356C81.752 36.7707 81.9654 36.4469 82.1126 36.0643C82.2745 35.6816 82.3555 35.2622 82.3555 34.806V34.232L78.9779 34.8722C78.3009 35.0047 77.8226 35.196 77.543 35.4462C77.2633 35.6816 77.1236 36.0054 77.1236 36.4175Z" fill="white"/>
<path d="M60.8184 33.9009C60.8184 32.9589 60.9656 32.1054 61.2599 31.3401C61.5542 30.5601 61.9737 29.8978 62.5182 29.3533C63.0628 28.7941 63.7176 28.3672 64.4829 28.073C65.2629 27.7639 66.1165 27.6094 67.0436 27.6094C67.8678 27.6094 68.6184 27.7271 69.2953 27.9626C69.9724 28.1833 70.5684 28.4997 71.0835 28.9118C71.6133 29.3239 72.0475 29.8316 72.3859 30.435C72.7244 31.0237 72.9599 31.6786 73.0923 32.3998H69.9135C69.8252 32.0465 69.6927 31.7301 69.5161 31.4505C69.3543 31.1708 69.1482 30.9354 68.898 30.7441C68.6625 30.5527 68.3902 30.4056 68.0812 30.3026C67.7721 30.1995 67.4337 30.1481 67.0657 30.1481C66.5654 30.1481 66.1239 30.2364 65.7412 30.413C65.3586 30.5896 65.0275 30.8397 64.7478 31.1635C64.4829 31.4873 64.2842 31.8772 64.1518 32.3335C64.0193 32.7897 63.9531 33.3121 63.9531 33.9009C63.9531 34.4748 64.0193 34.9973 64.1518 35.4682C64.2842 35.9244 64.4829 36.3144 64.7478 36.6382C65.0275 36.962 65.3586 37.2122 65.7412 37.3888C66.1386 37.5654 66.5801 37.6537 67.0657 37.6537C67.4484 37.6537 67.8016 37.6022 68.1253 37.4992C68.4492 37.3814 68.7288 37.2195 68.9642 37.0135C69.2144 36.7928 69.4205 36.5352 69.5823 36.2409C69.7589 35.9465 69.8841 35.608 69.9576 35.2254H73.1144C73.0114 35.976 72.7907 36.6603 72.4521 37.2784C72.1137 37.8818 71.6795 38.4043 71.1497 38.8458C70.6199 39.2725 70.0091 39.6037 69.3174 39.8392C68.6258 40.0746 67.8678 40.1924 67.0436 40.1924C66.1018 40.1924 65.2482 40.0452 64.4829 39.7509C63.7176 39.4418 63.0628 39.0076 62.5182 38.4484C61.9737 37.8892 61.5542 37.2269 61.2599 36.4616C60.9656 35.6963 60.8184 34.8427 60.8184 33.9009Z" fill="white"/>
<path d="M45.6016 39.9051L51.3191 24.1211H55.5355L61.231 39.9051H57.8534L56.5731 36.2626H50.2595L48.9791 39.9051H45.6016ZM51.0984 33.6798H55.7342L53.4163 27.013L51.0984 33.6798Z" fill="white"/>
<path d="M121.533 16.1322V13.0195H124.712V16.1322H121.533Z" fill="white"/>
<path d="M114.024 16.1321L109.631 4.12305H112.854L115.967 13.3726L119.101 4.12305H122.346L117.931 16.1321H114.024Z" fill="white"/>
<path d="M98.2637 13.0635C98.2637 12.0627 98.6101 11.2754 99.3012 10.7014C99.9932 10.1275 101.031 9.71533 102.414 9.4652L106.652 8.69256V8.60426C106.652 7.79481 106.432 7.19141 105.99 6.79405C105.549 6.39669 104.93 6.19801 104.136 6.19801C103.327 6.19801 102.708 6.39669 102.281 6.79405C101.87 7.19141 101.619 7.75066 101.531 8.47179H98.4182C98.4921 7.72122 98.6763 7.05896 98.9701 6.48499C99.2791 5.89632 99.6765 5.41065 100.162 5.02801C100.663 4.63065 101.252 4.33631 101.928 4.14499C102.606 3.93895 103.349 3.83594 104.158 3.83594C105.924 3.83594 107.286 4.27009 108.242 5.13839C109.199 5.99197 109.677 7.2282 109.677 8.84709V16.132H106.829L106.763 14.366C106.586 14.6602 106.351 14.9325 106.056 15.1827C105.763 15.4329 105.424 15.6536 105.041 15.845C104.659 16.0216 104.232 16.1614 103.76 16.2644C103.305 16.3674 102.819 16.419 102.303 16.419C101.759 16.419 101.237 16.3527 100.736 16.2203C100.25 16.0878 99.8242 15.8892 99.4557 15.6243C99.0881 15.3446 98.7935 14.9914 98.5727 14.5646C98.3673 14.1378 98.2637 13.6375 98.2637 13.0635ZM101.42 12.6441C101.42 13.1297 101.597 13.4976 101.95 13.7478C102.303 13.9833 102.782 14.101 103.385 14.101C103.886 14.101 104.334 14.0274 104.732 13.8803C105.144 13.7331 105.49 13.5271 105.769 13.2622C106.05 12.9973 106.263 12.6734 106.41 12.2909C106.572 11.9082 106.652 11.4888 106.652 11.0326V10.4586L103.275 11.0988C102.598 11.2312 102.12 11.4225 101.84 11.6727C101.561 11.9082 101.42 12.2319 101.42 12.6441Z" fill="white"/>
<path d="M84.6953 16.1317V0.347656H87.8522V7.08068L93.9892 0.347656H97.8082L91.7375 7.0586L98.2056 16.1317H94.4748L89.6182 9.26618L87.8522 11.1647V16.1317H84.6953Z" fill="white"/>
<path d="M72.1268 20.2602V17.6994C72.3917 17.7289 72.6419 17.7583 72.8774 17.7877C73.1129 17.8172 73.3484 17.8319 73.5838 17.8319C73.8487 17.8319 74.1063 17.8098 74.3565 17.7656C74.6214 17.7363 74.8716 17.6627 75.107 17.5449C75.3425 17.4272 75.5559 17.2653 75.7472 17.0592C75.9386 16.8679 76.1004 16.6177 76.2329 16.3087L76.6744 15.2932L76.3212 17.1034L71.8398 4.12305H75.0849L77.8885 13.2402L80.67 4.12305H83.9151L79.7208 16.3749C79.4707 17.1402 79.1542 17.7804 78.7715 18.2955C78.4036 18.8106 77.9768 19.2226 77.4912 19.5317C77.0055 19.8407 76.4684 20.0615 75.8797 20.1939C75.3057 20.3264 74.6876 20.3926 74.0253 20.3926C73.7752 20.3926 73.4734 20.3779 73.1202 20.3485C72.767 20.3338 72.4359 20.3043 72.1268 20.2602Z" fill="white"/>
<path d="M60.4082 13.0635C60.4082 12.0627 60.754 11.2754 61.4458 10.7014C62.1374 10.1275 63.1749 9.71533 64.5584 9.4652L68.7969 8.69256V8.60426C68.7969 7.79481 68.5761 7.19141 68.1346 6.79405C67.6931 6.39669 67.075 6.19801 66.2803 6.19801C65.4708 6.19801 64.8527 6.39669 64.4259 6.79405C64.0138 7.19141 63.7637 7.75066 63.6754 8.47179H60.5627C60.6363 7.72122 60.8203 7.05896 61.1146 6.48499C61.4237 5.89632 61.821 5.41065 62.3067 5.02801C62.807 4.63065 63.3957 4.33631 64.0727 4.14499C64.7497 3.93895 65.4929 3.83594 66.3024 3.83594C68.0684 3.83594 69.4297 4.27009 70.3863 5.13839C71.3429 5.99197 71.8212 7.2282 71.8212 8.84709V16.132H68.9735L68.9073 14.366C68.7307 14.6602 68.4951 14.9325 68.2008 15.1827C67.9065 15.4329 67.568 15.6536 67.1854 15.845C66.8027 16.0216 66.3759 16.1614 65.905 16.2644C65.4487 16.3674 64.9631 16.419 64.448 16.419C63.9034 16.419 63.381 16.3527 62.8807 16.2203C62.395 16.0878 61.9682 15.8892 61.6003 15.6243C61.2323 15.3446 60.938 14.9914 60.7173 14.5646C60.5112 14.1378 60.4082 13.6375 60.4082 13.0635ZM63.565 12.6441C63.565 13.1297 63.7416 13.4976 64.0948 13.7478C64.448 13.9833 64.9263 14.101 65.5297 14.101C66.0301 14.101 66.479 14.0274 66.8763 13.8803C67.2884 13.7331 67.6342 13.5271 67.9139 13.2622C68.1935 12.9973 68.4068 12.6734 68.5541 12.2909C68.7159 11.9082 68.7969 11.4888 68.7969 11.0326V10.4586L65.4193 11.0988C64.7423 11.2312 64.264 11.4225 63.9844 11.6727C63.7048 11.9082 63.565 12.2319 63.565 12.6441Z" fill="white"/>
<path d="M46.8379 16.1317V0.347656H49.9947V7.08068L56.1317 0.347656H59.9507L53.88 7.0586L60.3481 16.1317H56.6173L51.7607 9.26618L49.9947 11.1647V16.1317H46.8379Z" fill="white"/>
</g>
</g>
<defs>
<clipPath id="clip0_50766_28388">
<rect width="144.33" height="45" fill="white"/>
</clipPath>
<clipPath id="clip1_50766_28388">
<rect width="144.34" height="45" fill="white" transform="translate(-0.00390625)"/>
</clipPath>
</defs>
</svg>
