<svg width="440" height="146" viewBox="0 0 440 146" fill="none" xmlns="http://www.w3.org/2000/svg">
<path d="M66.9579 12.1599C74.1852 12.1626 88.4944 11.4833 95.1483 12.9089C99.4928 13.84 103.834 16.175 107.081 19.1941C113.085 24.7759 115.651 32.1094 115.918 40.1609C116.087 45.2291 115.944 50.3437 115.932 55.4158L115.895 81.8337L115.892 98.2468C115.893 102.847 116.16 107.696 115.236 112.22C114.225 117.199 111.856 121.799 108.394 125.512C103.097 131.166 96.6031 133.622 88.9706 133.844C75.3022 134.197 61.5501 133.843 47.8719 133.844L33.4178 133.848C29.4117 133.847 25.1063 134.059 21.162 133.269C16.9765 132.43 12.8579 130.349 9.65319 127.537C3.74845 122.355 0.632752 115.056 0.154167 107.296C-0.129795 102.691 0.0640644 97.9773 0.0711593 93.3621L0.089714 68.9998L0.0828781 50.0154C0.0805431 44.7039 -0.2332 39.2081 0.800652 33.9734C1.73931 29.1526 3.95168 24.6718 7.20788 20.9988C12.6136 14.9214 19.2299 12.6731 27.1258 12.2156C40.3598 11.7736 53.7133 12.1549 66.9579 12.1599ZM24.6044 71.908C19.0225 77.4449 12.9499 82.5039 7.43932 88.1013L7.41003 99.5281C7.40361 107.363 7.39915 114.64 13.288 120.598C18.1299 125.497 23.7577 126.146 30.3075 126.156L42.2567 126.148C46.508 126.175 53.8405 127.141 57.0751 124.027C58.3977 122.74 59.1444 120.973 59.1473 119.127C59.1386 117.762 58.7641 116.603 58.0565 115.454C55.6792 111.591 52.6185 108.006 49.8505 104.414L35.6512 85.9978L28.0135 76.1033C27.0484 74.8546 26.0157 73.1433 24.8583 72.0974C24.792 72.0377 24.6702 71.9549 24.6044 71.908ZM90.8348 20.3357C89.2418 20.1219 87.63 20.0855 86.0292 20.2273C83.1281 20.5655 80.4605 21.3663 77.9589 22.906C72.9855 25.9673 68.5075 30.6549 64.1698 34.5867C54.6623 43.2817 45.2446 52.0743 35.9178 60.9626C40.6211 66.8237 45.0144 72.9809 49.5087 79.0066L72.9374 110.431C77.2906 116.352 81.2359 123.223 89.1581 124.436C93.4365 125.079 97.7938 123.993 101.273 121.419C104.947 118.766 107.4 114.743 108.078 110.258C108.874 104.953 108.509 99.3019 108.51 93.9333L108.528 68.1091L108.553 49.3933C108.568 45.8777 108.878 42.1715 108.41 38.6902C107.93 35.115 106.575 31.4561 104.414 28.5564C101.178 24.2147 96.2164 21.0912 90.8348 20.3357ZM54.8622 20.2224C51.4857 19.5368 47.5684 19.8822 44.1268 19.8816C38.8463 19.8808 33.5509 19.8091 28.2723 19.9099C27.4715 19.9252 26.6441 19.9233 25.8475 20.0007C20.4697 20.4362 15.9624 22.2416 12.3895 26.4285C10.2693 28.9228 8.79585 31.9018 8.09948 35.1023C6.90963 40.521 7.43406 46.8242 7.43542 52.3601L7.42663 78.363C13.1497 72.5343 19.221 67.0163 25.0946 61.3376L48.7411 38.5212C51.7133 35.6293 55.3985 32.7771 57.9071 29.4978C58.7214 28.4336 59.1913 27.3122 59.2079 25.9587C59.2273 24.3571 58.6057 22.7035 57.4637 21.5701C56.7232 20.8356 55.8767 20.4285 54.8622 20.2224Z" fill="#111111"/>
<path d="M66.9579 12.1599C74.1852 12.1626 88.4944 11.4833 95.1483 12.9089C99.4928 13.84 103.834 16.175 107.081 19.1941C113.085 24.7758 115.65 32.1086 115.918 40.1599C116.087 45.2282 115.944 50.3435 115.932 55.4158L115.895 81.8337L115.892 98.2468C115.893 102.847 116.159 107.695 115.236 112.219C114.225 117.198 111.856 121.799 108.394 125.512C103.097 131.166 96.6031 133.622 88.9706 133.844C75.3022 134.197 61.5501 133.843 47.8719 133.844L33.4178 133.848C29.4117 133.847 25.1063 134.059 21.162 133.269C16.9765 132.43 12.8579 130.349 9.65319 127.537C3.74845 122.355 0.632754 115.056 0.154169 107.296C-0.129798 102.691 0.0640666 97.9773 0.0711616 93.3621L0.0897163 68.9998L0.0828803 50.0154C0.0805477 44.7039 -0.233201 39.2081 0.800654 33.9734C1.7393 29.1526 3.95168 24.6718 7.20788 20.9988C12.6136 14.9213 19.2299 12.6731 27.1258 12.2156C40.3598 11.7736 53.7133 12.1549 66.9579 12.1599ZM24.6034 71.908C19.0216 77.4449 12.9489 82.5039 7.43835 88.1013L7.40905 99.5281C7.40264 107.363 7.39846 114.639 13.287 120.597C18.1289 125.496 23.7567 126.145 30.3065 126.155L42.2557 126.147C46.5069 126.174 53.8384 127.14 57.0731 124.027C58.3959 122.74 59.1434 120.972 59.1464 119.126C59.1375 117.761 58.763 116.603 58.0555 115.454C55.6782 111.591 52.6175 108.006 49.8495 104.414L35.6503 85.9968L28.0126 76.1023C27.0475 74.8537 26.0146 73.1433 24.8573 72.0974C24.7911 72.0376 24.6693 71.955 24.6034 71.908ZM90.8348 20.3357C89.2418 20.1219 87.63 20.0855 86.0292 20.2273C83.128 20.5655 80.4596 21.3661 77.9579 22.906C72.9847 25.9674 68.5074 30.655 64.1698 34.5867C54.6623 43.2817 45.2446 52.0743 35.9178 60.9626C40.6209 66.8236 45.0145 72.9801 49.5087 79.0056L72.9374 110.43C77.2907 116.351 81.2358 123.222 89.1581 124.435C93.4365 125.078 97.7938 123.993 101.273 121.419C104.947 118.766 107.4 114.743 108.078 110.258C108.874 104.953 108.509 99.302 108.51 93.9333L108.528 68.1091L108.553 49.3933C108.568 45.8777 108.878 42.1716 108.41 38.6902C107.93 35.1151 106.574 31.4561 104.414 28.5564C101.178 24.2148 96.2164 21.0912 90.8348 20.3357ZM54.8622 20.2224C51.4858 19.5369 47.5693 19.8822 44.1278 19.8816C38.8473 19.8808 33.5519 19.8091 28.2733 19.9099C27.4725 19.9252 26.645 19.9233 25.8485 20.0007C20.4707 20.4362 15.9633 22.2407 12.3905 26.4275C10.2701 28.9218 8.79686 31.9017 8.10046 35.1023C6.91066 40.521 7.43504 46.8243 7.4364 52.3601L7.42761 78.363C13.1508 72.5343 19.2219 67.0153 25.0956 61.3367L48.7421 38.5203C51.7142 35.6283 55.3995 32.7771 57.9081 29.4978C58.7225 28.4335 59.1923 27.3114 59.2089 25.9578C59.2282 24.3561 58.6067 22.7024 57.4647 21.5691C56.7241 20.8346 55.8768 20.4284 54.8622 20.2224Z" fill="#111111"/>
<path d="M139.22 60V11.38H148.944V32.12L167.848 11.38H179.612L160.912 32.052L180.836 60H169.344L154.384 38.852L148.944 44.7V60H139.22ZM181.019 50.548C181.019 47.4653 182.085 45.04 184.215 43.272C186.346 41.504 189.542 40.2347 193.803 39.464L206.859 37.084V36.812C206.859 34.3187 206.179 32.46 204.819 31.236C203.459 30.012 201.555 29.4 199.107 29.4C196.614 29.4 194.71 30.012 193.395 31.236C192.126 32.46 191.355 34.1827 191.083 36.404H181.495C181.722 34.092 182.289 32.052 183.195 30.284C184.147 28.4707 185.371 26.9747 186.867 25.796C188.409 24.572 190.222 23.6653 192.307 23.076C194.393 22.4413 196.682 22.124 199.175 22.124C204.615 22.124 208.809 23.4613 211.755 26.136C214.702 28.7653 216.175 32.5733 216.175 37.56V60H207.403L207.199 54.56C206.655 55.4667 205.93 56.3053 205.023 57.076C204.117 57.8467 203.074 58.5267 201.895 59.116C200.717 59.66 199.402 60.0907 197.951 60.408C196.546 60.7253 195.05 60.884 193.463 60.884C191.786 60.884 190.177 60.68 188.635 60.272C187.139 59.864 185.825 59.252 184.691 58.436C183.558 57.5747 182.651 56.4867 181.971 55.172C181.337 53.8573 181.019 52.316 181.019 50.548ZM190.743 49.256C190.743 50.752 191.287 51.8853 192.375 52.656C193.463 53.3813 194.937 53.744 196.795 53.744C198.337 53.744 199.719 53.5173 200.943 53.064C202.213 52.6107 203.278 51.976 204.139 51.16C205.001 50.344 205.658 49.3467 206.111 48.168C206.61 46.9893 206.859 45.6973 206.859 44.292V42.524L196.455 44.496C194.37 44.904 192.897 45.4933 192.035 46.264C191.174 46.9893 190.743 47.9867 190.743 49.256ZM217.114 72.716V64.828C217.93 64.9187 218.701 65.0093 219.426 65.1C220.151 65.1907 220.877 65.236 221.602 65.236C222.418 65.236 223.211 65.168 223.982 65.032C224.798 64.9413 225.569 64.7147 226.294 64.352C227.019 63.9893 227.677 63.4907 228.266 62.856C228.855 62.2667 229.354 61.496 229.762 60.544L231.122 57.416L230.034 62.992L216.23 23.008H226.226L234.862 51.092L243.43 23.008H253.426L240.506 60.748C239.735 63.1053 238.761 65.0773 237.582 66.664C236.449 68.2507 235.134 69.52 233.638 70.472C232.142 71.424 230.487 72.104 228.674 72.512C226.906 72.92 225.002 73.124 222.962 73.124C222.191 73.124 221.262 73.0787 220.174 72.988C219.086 72.9427 218.066 72.852 217.114 72.716ZM255.83 60V11.38H265.554V32.12L284.458 11.38H296.222L277.522 32.052L297.446 60H285.954L270.994 38.852L265.554 44.7V60H255.83ZM297.629 50.548C297.629 47.4653 298.694 45.04 300.825 43.272C302.955 41.504 306.151 40.2347 310.413 39.464L323.469 37.084V36.812C323.469 34.3187 322.789 32.46 321.429 31.236C320.069 30.012 318.165 29.4 315.717 29.4C313.223 29.4 311.319 30.012 310.005 31.236C308.735 32.46 307.965 34.1827 307.693 36.404H298.105C298.331 34.092 298.898 32.052 299.805 30.284C300.757 28.4707 301.981 26.9747 303.477 25.796C305.018 24.572 306.831 23.6653 308.917 23.076C311.002 22.4413 313.291 22.124 315.785 22.124C321.225 22.124 325.418 23.4613 328.365 26.136C331.311 28.7653 332.785 32.5733 332.785 37.56V60H324.013L323.809 54.56C323.265 55.4667 322.539 56.3053 321.633 57.076C320.726 57.8467 319.683 58.5267 318.505 59.116C317.326 59.66 316.011 60.0907 314.561 60.408C313.155 60.7253 311.659 60.884 310.073 60.884C308.395 60.884 306.786 60.68 305.245 60.272C303.749 59.864 302.434 59.252 301.301 58.436C300.167 57.5747 299.261 56.4867 298.581 55.172C297.946 53.8573 297.629 52.316 297.629 50.548ZM307.353 49.256C307.353 50.752 307.897 51.8853 308.985 52.656C310.073 53.3813 311.546 53.744 313.405 53.744C314.946 53.744 316.329 53.5173 317.553 53.064C318.822 52.6107 319.887 51.976 320.749 51.16C321.61 50.344 322.267 49.3467 322.721 48.168C323.219 46.9893 323.469 45.6973 323.469 44.292V42.524L313.065 44.496C310.979 44.904 309.506 45.4933 308.645 46.264C307.783 46.9893 307.353 47.9867 307.353 49.256ZM346.174 60L332.642 23.008H342.57L352.158 51.5L361.814 23.008H371.81L358.21 60H346.174ZM369.303 60V50.412H379.095V60H369.303ZM135.412 132L153.024 83.38H166.012L183.556 132H173.152L169.208 120.78H149.76L145.816 132H135.412ZM152.344 112.824H166.624L159.484 92.288L152.344 112.824ZM182.286 113.504C182.286 110.603 182.739 107.973 183.646 105.616C184.553 103.213 185.845 101.173 187.522 99.496C189.199 97.7733 191.217 96.4587 193.574 95.552C195.977 94.6 198.606 94.124 201.462 94.124C204.001 94.124 206.313 94.4867 208.398 95.212C210.483 95.892 212.319 96.8667 213.906 98.136C215.538 99.4053 216.875 100.969 217.918 102.828C218.961 104.641 219.686 106.659 220.094 108.88H210.302C210.03 107.792 209.622 106.817 209.078 105.956C208.579 105.095 207.945 104.369 207.174 103.78C206.449 103.191 205.61 102.737 204.658 102.42C203.706 102.103 202.663 101.944 201.53 101.944C199.989 101.944 198.629 102.216 197.45 102.76C196.271 103.304 195.251 104.075 194.39 105.072C193.574 106.069 192.962 107.271 192.554 108.676C192.146 110.081 191.942 111.691 191.942 113.504C191.942 115.272 192.146 116.881 192.554 118.332C192.962 119.737 193.574 120.939 194.39 121.936C195.251 122.933 196.271 123.704 197.45 124.248C198.674 124.792 200.034 125.064 201.53 125.064C202.709 125.064 203.797 124.905 204.794 124.588C205.791 124.225 206.653 123.727 207.378 123.092C208.149 122.412 208.783 121.619 209.282 120.712C209.826 119.805 210.211 118.763 210.438 117.584H220.162C219.845 119.896 219.165 122.004 218.122 123.908C217.079 125.767 215.742 127.376 214.11 128.736C212.478 130.051 210.597 131.071 208.466 131.796C206.335 132.521 204.001 132.884 201.462 132.884C198.561 132.884 195.931 132.431 193.574 131.524C191.217 130.572 189.199 129.235 187.522 127.512C185.845 125.789 184.553 123.749 183.646 121.392C182.739 119.035 182.286 116.405 182.286 113.504ZM222.789 122.548C222.789 119.465 223.854 117.04 225.985 115.272C228.116 113.504 231.312 112.235 235.573 111.464L248.629 109.084V108.812C248.629 106.319 247.949 104.46 246.589 103.236C245.229 102.012 243.325 101.4 240.877 101.4C238.384 101.4 236.48 102.012 235.165 103.236C233.896 104.46 233.125 106.183 232.853 108.404H223.265C223.492 106.092 224.058 104.052 224.965 102.284C225.917 100.471 227.141 98.9747 228.637 97.796C230.178 96.572 231.992 95.6653 234.077 95.076C236.162 94.4413 238.452 94.124 240.945 94.124C246.385 94.124 250.578 95.4613 253.525 98.136C256.472 100.765 257.945 104.573 257.945 109.56V132H249.173L248.969 126.56C248.425 127.467 247.7 128.305 246.793 129.076C245.886 129.847 244.844 130.527 243.665 131.116C242.486 131.66 241.172 132.091 239.721 132.408C238.316 132.725 236.82 132.884 235.233 132.884C233.556 132.884 231.946 132.68 230.405 132.272C228.909 131.864 227.594 131.252 226.461 130.436C225.328 129.575 224.421 128.487 223.741 127.172C223.106 125.857 222.789 124.316 222.789 122.548ZM232.513 121.256C232.513 122.752 233.057 123.885 234.145 124.656C235.233 125.381 236.706 125.744 238.565 125.744C240.106 125.744 241.489 125.517 242.713 125.064C243.982 124.611 245.048 123.976 245.909 123.16C246.77 122.344 247.428 121.347 247.881 120.168C248.38 118.989 248.629 117.697 248.629 116.292V114.524L238.225 116.496C236.14 116.904 234.666 117.493 233.805 118.264C232.944 118.989 232.513 119.987 232.513 121.256ZM299.44 132H290.668L290.464 125.88C289.376 128.192 287.721 129.937 285.5 131.116C283.279 132.295 280.808 132.884 278.088 132.884C275.685 132.884 273.487 132.431 271.492 131.524C269.543 130.617 267.865 129.325 266.46 127.648C265.055 125.925 263.967 123.863 263.196 121.46C262.425 119.057 262.04 116.405 262.04 113.504C262.04 110.603 262.425 107.973 263.196 105.616C263.967 103.213 265.055 101.173 266.46 99.496C267.865 97.7733 269.543 96.4587 271.492 95.552C273.487 94.6 275.685 94.124 278.088 94.124C280.808 94.124 283.211 94.7133 285.296 95.892C287.427 97.0707 289.081 98.748 290.26 100.924V82.02H299.44V132ZM290.124 113.436C290.124 111.623 289.897 110.013 289.444 108.608C289.036 107.203 288.424 106.001 287.608 105.004C286.837 104.007 285.863 103.259 284.684 102.76C283.551 102.216 282.236 101.944 280.74 101.944C279.289 101.944 277.997 102.193 276.864 102.692C275.776 103.191 274.824 103.939 274.008 104.936C273.237 105.933 272.648 107.157 272.24 108.608C271.877 110.013 271.696 111.623 271.696 113.436C271.696 115.295 271.877 116.949 272.24 118.4C272.648 119.851 273.237 121.075 274.008 122.072C274.824 123.024 275.799 123.772 276.932 124.316C278.065 124.815 279.335 125.064 280.74 125.064C282.236 125.064 283.551 124.815 284.684 124.316C285.863 123.772 286.837 123.001 287.608 122.004C288.424 121.007 289.036 119.783 289.444 118.332C289.897 116.881 290.124 115.249 290.124 113.436ZM303.743 113.504C303.743 110.603 304.196 107.973 305.103 105.616C306.01 103.213 307.279 101.173 308.911 99.496C310.588 97.7733 312.606 96.4587 314.963 95.552C317.32 94.6 319.95 94.124 322.851 94.124C325.707 94.124 328.268 94.5773 330.535 95.484C332.847 96.3907 334.796 97.6827 336.383 99.36C338.015 100.992 339.262 102.987 340.123 105.344C340.984 107.656 341.415 110.24 341.415 113.096V115.952H313.535C313.716 117.357 314.056 118.649 314.555 119.828C315.054 121.007 315.688 122.004 316.459 122.82C317.275 123.636 318.227 124.271 319.315 124.724C320.403 125.132 321.604 125.336 322.919 125.336C323.916 125.336 324.823 125.223 325.639 124.996C326.5 124.769 327.271 124.429 327.951 123.976C328.631 123.477 329.22 122.888 329.719 122.208C330.263 121.528 330.716 120.757 331.079 119.896H341.075C339.987 123.885 337.834 127.059 334.615 129.416C331.442 131.728 327.52 132.884 322.851 132.884C319.95 132.884 317.32 132.431 314.963 131.524C312.606 130.572 310.588 129.235 308.911 127.512C307.279 125.789 306.01 123.749 305.103 121.392C304.196 119.035 303.743 116.405 303.743 113.504ZM313.603 110.512H331.827C331.691 109.152 331.374 107.928 330.875 106.84C330.422 105.752 329.81 104.823 329.039 104.052C328.314 103.281 327.43 102.692 326.387 102.284C325.344 101.876 324.166 101.672 322.851 101.672C321.536 101.672 320.358 101.876 319.315 102.284C318.318 102.692 317.411 103.281 316.595 104.052C315.824 104.823 315.19 105.752 314.691 106.84C314.192 107.928 313.83 109.152 313.603 110.512ZM345.666 132V95.008H354.438L354.642 101.604C355.095 100.335 355.685 99.224 356.41 98.272C357.181 97.32 358.042 96.5493 358.994 95.96C359.946 95.3707 360.989 94.9173 362.122 94.6C363.301 94.2827 364.547 94.124 365.862 94.124C367.267 94.124 368.582 94.3053 369.806 94.668C371.03 95.0307 372.118 95.552 373.07 96.232C374.067 96.8667 374.929 97.6827 375.654 98.68C376.379 99.6773 376.969 100.811 377.422 102.08C377.875 100.72 378.465 99.5413 379.19 98.544C379.915 97.5467 380.754 96.7307 381.706 96.096C382.703 95.416 383.814 94.9173 385.038 94.6C386.262 94.2827 387.554 94.124 388.914 94.124C390.818 94.124 392.541 94.4413 394.082 95.076C395.669 95.7107 397.006 96.64 398.094 97.864C399.227 99.0427 400.089 100.516 400.678 102.284C401.267 104.007 401.562 105.956 401.562 108.132V132H392.042V111.26C392.042 109.719 391.906 108.381 391.634 107.248C391.407 106.115 391.045 105.185 390.546 104.46C390.047 103.689 389.39 103.123 388.574 102.76C387.803 102.397 386.874 102.216 385.786 102.216C384.653 102.216 383.633 102.42 382.726 102.828C381.819 103.236 381.026 103.825 380.346 104.596C379.711 105.321 379.213 106.251 378.85 107.384C378.533 108.517 378.374 109.809 378.374 111.26V132H368.854V111.26C368.854 109.719 368.718 108.381 368.446 107.248C368.219 106.115 367.857 105.185 367.358 104.46C366.859 103.689 366.202 103.123 365.386 102.76C364.615 102.397 363.686 102.216 362.598 102.216C361.465 102.216 360.445 102.42 359.538 102.828C358.631 103.236 357.838 103.825 357.158 104.596C356.523 105.321 356.025 106.251 355.662 107.384C355.345 108.517 355.186 109.809 355.186 111.26V132H345.666ZM402.72 144.716V136.828C403.536 136.919 404.306 137.009 405.032 137.1C405.757 137.191 406.482 137.236 407.208 137.236C408.024 137.236 408.817 137.168 409.588 137.032C410.404 136.941 411.174 136.715 411.9 136.352C412.625 135.989 413.282 135.491 413.872 134.856C414.461 134.267 414.96 133.496 415.368 132.544L416.728 129.416L415.64 134.992L401.836 95.008H411.832L420.468 123.092L429.036 95.008H439.032L426.112 132.748C425.341 135.105 424.366 137.077 423.188 138.664C422.054 140.251 420.74 141.52 419.244 142.472C417.748 143.424 416.093 144.104 414.28 144.512C412.512 144.92 410.608 145.124 408.568 145.124C407.797 145.124 406.868 145.079 405.78 144.988C404.692 144.943 403.672 144.852 402.72 144.716Z" fill="#111111"/>
</svg>
